<svg width="409" height="409" viewBox="0 0 409 409" fill="none" xmlns="http://www.w3.org/2000/svg">
<g clip-path="url(#clip0_947_3284)">
<path d="M204.288 0C91.648 0 0 91.648 0 204.288C0 316.928 91.648 408.576 204.288 408.576C316.928 408.576 408.576 316.928 408.576 204.288C408.576 91.648 316.928 0 204.288 0ZM318.464 150.528L187.904 280.064C180.224 287.744 167.936 288.256 159.744 280.576L90.624 217.6C82.432 209.92 81.92 197.12 89.088 188.928C96.768 180.736 109.568 180.224 117.76 187.904L172.544 238.08L289.28 121.344C297.472 113.152 310.272 113.152 318.464 121.344C326.656 129.536 326.656 142.336 318.464 150.528Z" fill="#FBA819"/>
</g>
<defs>
<clipPath id="clip0_947_3284">
<rect width="408.576" height="408.576" fill="white"/>
</clipPath>
</defs>
</svg>
