<svg width="40" height="40" viewBox="0 0 40 40" fill="none" xmlns="http://www.w3.org/2000/svg">
<path d="M22.4016 11.5698C20.8291 11.1419 19.1706 11.1432 17.5987 11.5735C17.4657 11.609 17.3481 11.6875 17.2642 11.7967C17.1803 11.9059 17.1348 12.0397 17.1349 12.1775V13.1568C17.1369 13.2379 17.1156 13.3179 17.0734 13.3873C17.0313 13.4567 16.9701 13.5124 16.8971 13.548C16.5167 13.7195 16.1515 13.923 15.8055 14.1562C15.7285 14.2019 15.6406 14.2261 15.5511 14.226C15.4615 14.2259 15.3737 14.2017 15.2968 14.1559L14.4194 13.6658C14.3029 13.6007 14.1686 13.5747 14.0362 13.5913C13.9039 13.608 13.7803 13.6666 13.6836 13.7586C12.5222 14.8589 11.6874 16.2586 11.2712 17.8034C11.2353 17.9377 11.2452 18.0802 11.2994 18.2082C11.3535 18.3363 11.4489 18.4427 11.5703 18.5105L12.7104 19.1471C12.6359 19.7133 12.6359 20.2868 12.7104 20.853L11.5709 21.4893C11.4495 21.557 11.3541 21.6633 11.2999 21.7913C11.2457 21.9193 11.2357 22.0618 11.2715 22.1961C11.6857 23.7413 12.5189 25.142 13.679 26.2436C13.7755 26.3357 13.8991 26.3945 14.0314 26.4112C14.1638 26.428 14.2981 26.4019 14.4145 26.3367L15.2971 25.8442C15.3739 25.7982 15.4617 25.7739 15.5512 25.7739C15.6407 25.7738 15.7286 25.798 15.8055 25.8438C16.1513 26.0769 16.5163 26.2803 16.8965 26.4518C16.9696 26.4873 17.0309 26.5431 17.0731 26.6125C17.1154 26.6819 17.1368 26.7621 17.1348 26.8433V27.8266C17.1348 27.9642 17.1803 28.098 17.2641 28.2071C17.3479 28.3163 17.4654 28.3947 17.5984 28.4302C18.3829 28.6413 19.1917 28.7489 20.0041 28.75C20.041 28.75 20.0783 28.7497 20.1152 28.7494C20.8877 28.7367 21.6557 28.6283 22.4016 28.4265C22.5346 28.3909 22.6521 28.3125 22.7359 28.2033C22.8197 28.0941 22.8652 27.9602 22.8651 27.8226V26.8433C22.8632 26.7621 22.8846 26.6821 22.9268 26.6127C22.969 26.5434 23.0302 26.4876 23.1032 26.452C23.4835 26.2804 23.8487 26.0769 24.1948 25.8438C24.2718 25.7981 24.3597 25.774 24.4492 25.774C24.5387 25.7741 24.6266 25.7983 24.7035 25.8441L25.5809 26.3342C25.6973 26.3995 25.8316 26.4256 25.9639 26.409C26.0963 26.3923 26.2198 26.3336 26.3164 26.2415C27.478 25.1413 28.3129 23.7415 28.7291 22.1967C28.765 22.0623 28.7551 21.9198 28.7008 21.7917C28.6466 21.6636 28.5512 21.5573 28.4297 21.4896L27.2899 20.853C27.364 20.2867 27.364 19.7133 27.2899 19.147L28.4294 18.5108C28.5509 18.443 28.6463 18.3367 28.7005 18.2086C28.7548 18.0805 28.7647 17.938 28.7288 17.8037C28.3144 16.2584 27.4811 14.8577 26.321 13.7561C26.2243 13.6641 26.1008 13.6054 25.9683 13.5888C25.8359 13.5721 25.7017 13.5982 25.5852 13.6633L24.7032 14.1559C24.6264 14.2017 24.5386 14.2259 24.4491 14.226C24.3596 14.226 24.2717 14.2019 24.1948 14.1562C23.8487 13.9231 23.4836 13.7196 23.1032 13.548C23.0302 13.5125 22.9689 13.4567 22.9267 13.3873C22.8845 13.318 22.8631 13.2379 22.8652 13.1567V12.1735C22.8652 12.0359 22.8197 11.9021 22.7359 11.7929C22.6521 11.6838 22.5346 11.6053 22.4016 11.5698ZM23.496 15.1926C23.7648 15.3671 24.0764 15.4645 24.3968 15.4741C24.7172 15.4837 25.0341 15.4053 25.313 15.2472L25.7802 14.9863C26.4974 15.7556 27.0431 16.6685 27.3811 17.6645L26.299 18.2688C26.1843 18.3327 26.0927 18.4312 26.0372 18.5502C25.9817 18.6692 25.965 18.8026 25.9895 18.9316C26.1307 19.6369 26.1307 20.3632 25.9895 21.0684C25.965 21.1974 25.9817 21.3309 26.0372 21.4498C26.0927 21.5688 26.1843 21.6673 26.299 21.7313L27.3814 22.3358C27.0415 23.3312 26.4944 24.2432 25.7762 25.0116L25.313 24.7528C25.0341 24.5946 24.7172 24.5161 24.3968 24.5257C24.0764 24.5353 23.7648 24.6328 23.4959 24.8074C23.2083 25.0011 22.9047 25.1702 22.5886 25.3128C22.2966 25.4476 22.0495 25.6636 21.8769 25.9349C21.7043 26.2063 21.6134 26.5217 21.6151 26.8433V27.3291C20.5505 27.5559 19.4501 27.5572 18.3849 27.3328V26.8433C18.3866 26.5216 18.2957 26.2062 18.123 25.9347C17.9503 25.6633 17.7032 25.4473 17.411 25.3125C17.0952 25.1701 16.792 25.0011 16.5047 24.8075C16.236 24.6325 15.9243 24.5349 15.6038 24.5253C15.2833 24.5156 14.9664 24.5944 14.6876 24.7528L14.2201 25.0138C13.5028 24.2444 12.9571 23.3315 12.6189 22.3355L13.7011 21.7313C13.8157 21.6674 13.9073 21.5689 13.9628 21.45C14.0184 21.3311 14.035 21.1977 14.0105 21.0688C13.8693 20.3633 13.8693 19.6368 14.0105 18.9313C14.035 18.8024 14.0184 18.669 13.9629 18.5501C13.9074 18.4312 13.8159 18.3328 13.7013 18.2688L12.6189 17.6642C12.9587 16.6687 13.5059 15.7567 14.2244 14.9884L14.6873 15.2472C14.9663 15.4053 15.2832 15.4837 15.6036 15.4741C15.9241 15.4645 16.2357 15.3671 16.5047 15.1926C16.792 14.9989 17.0952 14.8299 17.411 14.6875C17.7032 14.5528 17.9504 14.3369 18.1231 14.0654C18.2958 13.7939 18.3867 13.4785 18.3849 13.1568V12.6709C18.8832 12.5653 19.3907 12.5082 19.9 12.5006C20.476 12.4949 21.051 12.5508 21.6151 12.6673V13.1568C21.6134 13.4785 21.7043 13.794 21.877 14.0654C22.0498 14.3369 22.297 14.5529 22.5893 14.6875C22.9051 14.8301 23.2085 14.999 23.496 15.1926Z" fill="#222020"/>
<path d="M15.625 20C15.625 20.8653 15.8816 21.7112 16.3623 22.4306C16.8431 23.1501 17.5263 23.7108 18.3258 24.042C19.1252 24.3731 20.0049 24.4597 20.8535 24.2909C21.7022 24.1221 22.4817 23.7054 23.0936 23.0936C23.7054 22.4817 24.1221 21.7022 24.2909 20.8535C24.4597 20.0049 24.3731 19.1252 24.042 18.3258C23.7108 17.5263 23.1501 16.8431 22.4306 16.3623C21.7112 15.8816 20.8653 15.625 20 15.625C18.8401 15.6263 17.728 16.0877 16.9078 16.9078C16.0877 17.728 15.6263 18.8401 15.625 20ZM23.125 20C23.125 20.6181 22.9417 21.2223 22.5983 21.7362C22.255 22.2501 21.7669 22.6506 21.1959 22.8871C20.6249 23.1236 19.9965 23.1855 19.3903 23.065C18.7842 22.9444 18.2273 22.6467 17.7903 22.2097C17.3533 21.7727 17.0556 21.2158 16.935 20.6097C16.8145 20.0035 16.8764 19.3751 17.1129 18.8041C17.3494 18.2331 17.7499 17.745 18.2638 17.4017C18.7777 17.0583 19.3819 16.875 20 16.875C20.8285 16.876 21.6228 17.2055 22.2086 17.7914C22.7945 18.3772 23.124 19.1715 23.125 20Z" fill="#222020"/>
<path d="M15.625 37.5C15.625 37.6131 15.6557 37.7241 15.7138 37.8211C15.772 37.9182 15.8554 37.9976 15.9551 38.051C16.0548 38.1044 16.1672 38.1297 16.2802 38.1242C16.3932 38.1188 16.5026 38.0827 16.5967 38.02L20.3467 35.52C20.4323 35.4629 20.5025 35.3856 20.551 35.2949C20.5996 35.2042 20.625 35.1029 20.625 35C20.625 34.8971 20.5996 34.7958 20.551 34.7051C20.5025 34.6143 20.4323 34.537 20.3467 34.4799L16.5967 31.9799C16.5026 31.9172 16.3932 31.8811 16.2802 31.8757C16.1672 31.8702 16.0548 31.8955 15.9551 31.9489C15.8553 32.0023 15.7719 32.0817 15.7138 32.1788C15.6557 32.2758 15.625 32.3869 15.625 32.5V34.375H0.625V35.625H15.625V37.5ZM16.875 33.6679L18.8733 35L16.875 36.3321V33.6679Z" fill="#FBA819"/>
<path d="M39.0967 4.48001L35.3467 1.98001C35.2526 1.91724 35.1432 1.8812 35.0302 1.87573C34.9172 1.87026 34.8048 1.89556 34.7051 1.94894C34.6054 2.00232 34.522 2.08177 34.4638 2.17882C34.4057 2.27587 34.375 2.38688 34.375 2.50001V4.37501H20C17.8114 4.37399 15.6471 4.83425 13.6483 5.72577C11.6495 6.61729 9.86102 7.92006 8.39946 9.54915C8.11309 9.43568 7.80806 9.37663 7.50003 9.37501C7.00559 9.37477 6.52219 9.52122 6.11102 9.79583C5.69984 10.0704 5.37938 10.4609 5.19019 10.9177C5.001 11.3745 4.95159 11.8772 5.0482 12.3621C5.14482 12.847 5.38312 13.2923 5.73295 13.6417C4.83344 15.6405 4.37051 17.8082 4.37503 20C4.37572 22.217 4.848 24.4084 5.76051 26.4288C6.67302 28.4493 8.00489 30.2525 9.66769 31.7188L10.4947 30.7813C8.96486 29.4323 7.73946 27.7734 6.89987 25.9146C6.06028 24.0558 5.62572 22.0396 5.62503 20C5.62061 18.0274 6.02774 16.0756 6.82041 14.2692C7.04089 14.3361 7.26966 14.3717 7.50003 14.375C8.16284 14.3743 8.79829 14.1106 9.26696 13.6419C9.73564 13.1733 9.99927 12.5378 10 11.875C9.99751 11.2936 9.79046 10.7316 9.41516 10.2876C10.7586 8.81747 12.3937 7.64355 14.2162 6.84075C16.0387 6.03794 18.0085 5.62389 20 5.62501H34.375V7.50001C34.375 7.61313 34.4057 7.72413 34.4639 7.82117C34.522 7.91821 34.6054 7.99765 34.7051 8.05103C34.8049 8.1044 34.9172 8.12971 35.0302 8.12424C35.1432 8.11878 35.2526 8.08275 35.3467 8.02001L39.0967 5.52001C39.1823 5.46294 39.2525 5.38561 39.3011 5.2949C39.3496 5.20418 39.375 5.10288 39.375 4.99999C39.375 4.8971 39.3496 4.7958 39.3011 4.70508C39.2525 4.61437 39.1823 4.53708 39.0967 4.48001ZM7.50003 13.125C7.25281 13.125 7.01113 13.0517 6.80557 12.9143C6.60001 12.777 6.43979 12.5818 6.34518 12.3534C6.25057 12.125 6.22582 11.8736 6.27405 11.6311C6.32228 11.3887 6.44133 11.1659 6.61615 10.9911C6.79097 10.8163 7.01369 10.6973 7.25617 10.649C7.49865 10.6008 7.74998 10.6255 7.97839 10.7202C8.20679 10.8148 8.40202 10.975 8.53937 11.1805C8.67672 11.3861 8.75003 11.6278 8.75003 11.875C8.7497 12.2064 8.6179 12.5242 8.38355 12.7585C8.1492 12.9929 7.83145 13.1247 7.50003 13.125ZM35.625 6.3321V3.66791L37.6233 5.00001L35.625 6.3321Z" fill="#222020"/>
<path d="M23.5938 33.9211L23.9062 35.1315C27.6414 34.1671 30.8841 31.8472 33.0029 28.6235C33.2439 28.704 33.4959 28.7467 33.75 28.7502C34.294 28.7516 34.8235 28.5751 35.2578 28.2475C35.6921 27.92 36.0074 27.4594 36.1556 26.936C36.3038 26.4127 36.2768 25.8552 36.0788 25.3485C35.8807 24.8419 35.5224 24.4139 35.0586 24.1298C35.8357 21.3291 35.8128 18.3667 34.9925 15.5784C34.1721 12.79 32.5872 10.2872 30.4172 8.35352L29.5828 9.2843C31.5746 11.0588 33.0309 13.3546 33.7874 15.9127C34.5439 18.4708 34.5705 21.1894 33.8642 23.7618C33.8255 23.76 33.7891 23.7502 33.75 23.7502C33.2612 23.7489 32.7827 23.8913 32.3742 24.1597C31.9656 24.4281 31.645 24.8107 31.4522 25.2599C31.2594 25.7091 31.2028 26.2051 31.2897 26.6862C31.3765 27.1672 31.6028 27.6122 31.9405 27.9656C29.9908 30.915 27.017 33.0369 23.5938 33.9211ZM33.75 25.0002C33.9972 25.0002 34.2389 25.0736 34.4445 25.2109C34.65 25.3483 34.8102 25.5435 34.9048 25.7719C34.9995 26.0003 35.0242 26.2516 34.976 26.4941C34.9278 26.7366 34.8087 26.9593 34.6339 27.1341C34.4591 27.3089 34.2363 27.428 33.9939 27.4762C33.7514 27.5245 33.5001 27.4997 33.2716 27.4051C33.0432 27.3105 32.848 27.1503 32.7107 26.9447C32.5733 26.7391 32.5 26.4975 32.5 26.2502C32.5003 25.9188 32.6321 25.6011 32.8665 25.3667C33.1008 25.1324 33.4186 25.0006 33.75 25.0002Z" fill="#222020"/>
</svg>
