<svg width="25" height="25" viewBox="0 0 25 25" fill="none" xmlns="http://www.w3.org/2000/svg">
<g clip-path="url(#clip0_921_141)">
<path d="M10.9486 15.6894C11.8803 16.6243 13.4732 16.6041 14.3848 15.6894L16.2177 13.8502L22.9812 20.6358C22.8447 20.6693 22.703 20.6875 22.5573 20.6875H2.77603C2.63027 20.6875 2.48856 20.6693 2.35191 20.6358L9.11549 13.8502L10.9486 15.6894C10.9486 15.6894 10.9486 15.6894 10.9486 15.6894Z" fill="#FBA819" stroke="#222020" stroke-width="0.5"/>
<path d="M2.35188 4.36418C2.48849 4.33065 2.63019 4.3125 2.77593 4.3125H22.5572C22.7029 4.3125 22.8446 4.33062 22.9812 4.36413L15.5709 11.7992L15.57 11.7997L15.5443 11.8253C15.541 11.8287 15.5378 11.8321 15.5349 11.8353L13.0352 14.3433C13.0352 14.3434 13.0352 14.3434 13.0352 14.3434C12.9613 14.4173 12.8263 14.47 12.6666 14.47C12.5069 14.47 12.3719 14.4173 12.298 14.3433L9.79934 11.8364C9.79608 11.8328 9.79262 11.8291 9.78896 11.8254C9.78573 11.8222 9.78253 11.8192 9.77938 11.8163L2.35188 4.36418Z" fill="#FBA819" stroke="#222020" stroke-width="0.5"/>
<path d="M0.916504 6.17183C0.916504 6.00617 0.940533 5.84585 0.984198 5.69206L7.76984 12.5002L0.984154 19.3079C0.940509 19.1541 0.916504 18.9938 0.916504 18.8281V6.17183Z" fill="#FBA819" stroke="#222020" stroke-width="0.5"/>
<path d="M24.349 19.308L17.5634 12.5003L24.349 5.69207C24.3927 5.84587 24.4167 6.00621 24.4167 6.17192V18.8282C24.4167 18.9939 24.3927 19.1542 24.349 19.308Z" fill="#FBA819" stroke="#222020" stroke-width="0.5"/>
</g>
<defs>
<clipPath id="clip0_921_141">
<rect width="24" height="24" fill="white" transform="translate(0.666504 0.5)"/>
</clipPath>
</defs>
</svg>
