<svg width="19" height="24" viewBox="0 0 19 24" fill="none" xmlns="http://www.w3.org/2000/svg">
<path d="M9.75471 23.5733L9.7547 23.5733C9.54342 23.8087 9.1737 23.809 8.96209 23.5733L8.77878 23.7379L8.96208 23.5733C8.80003 23.3929 6.78149 21.1277 4.80497 18.1694C3.81671 16.6902 2.8423 15.0426 2.1157 13.3995C1.38772 11.7532 0.916504 10.129 0.916504 8.69184C0.916504 4.03723 4.70373 0.25 9.35839 0.25C14.013 0.25 17.8002 4.03723 17.8003 8.69184C17.8003 10.129 17.3291 11.7532 16.6011 13.3995C15.8745 15.0426 14.9001 16.6902 13.9118 18.1694C11.9353 21.1277 9.91676 23.3929 9.75471 23.5733ZM4.73533 8.69184C4.73533 11.2413 6.80898 13.315 9.35839 13.315C11.9078 13.315 13.9814 11.2413 13.9814 8.69189C13.9814 6.14248 11.9078 4.06878 9.35839 4.06878C6.80903 4.06878 4.73533 6.14243 4.73533 8.69184Z" fill="#FBA819" stroke="#222020" stroke-width="0.5"/>
</svg>
