<svg width="14" height="19" viewBox="0 0 14 19" fill="none" xmlns="http://www.w3.org/2000/svg">
<path d="M7 0.590942C5.14416 0.593132 3.36495 1.33133 2.05267 2.64361C0.740394 3.95589 0.00219378 5.7351 4.39357e-06 7.59094C-0.00170191 9.10745 0.493636 10.5827 1.41019 11.7909C1.41019 11.7909 1.60109 12.0423 1.63228 12.0786L7 18.4091L12.3703 12.0754C12.3983 12.0417 12.5898 11.7909 12.5898 11.7909L12.5905 11.789C13.5064 10.5813 14.0015 9.10672 14 7.59094C13.9978 5.7351 13.2596 3.95589 11.9473 2.64361C10.635 1.33133 8.85584 0.593132 7 0.590942ZM7 10.1364C6.49656 10.1364 6.00442 9.9871 5.58582 9.70741C5.16723 9.42771 4.84097 9.03016 4.64831 8.56504C4.45565 8.09992 4.40524 7.58812 4.50346 7.09435C4.60167 6.60058 4.84411 6.14702 5.20009 5.79103C5.55608 5.43504 6.00964 5.19261 6.50341 5.0944C6.99718 4.99618 7.50898 5.04659 7.9741 5.23925C8.43922 5.43191 8.83677 5.75816 9.11647 6.17676C9.39617 6.59536 9.54545 7.0875 9.54545 7.59094C9.54461 8.26578 9.27616 8.91273 8.79898 9.38992C8.3218 9.8671 7.67484 10.1356 7 10.1364Z" fill="#FBA819"/>
</svg>
